<svg width="33" height="32" viewBox="0 0 33 32" fill="none" xmlns="http://www.w3.org/2000/svg">
<path d="M29.9157 4.08071H26.595V3.43452C26.595 3.26314 26.525 3.09878 26.4005 2.9776C26.2759 2.85641 26.107 2.78833 25.9309 2.78833C25.7547 2.78833 25.5858 2.85641 25.4612 2.9776C25.3367 3.09878 25.2667 3.26314 25.2667 3.43452V4.08071H17.297V3.43452C17.297 3.26314 17.227 3.09878 17.1025 2.9776C16.9779 2.85641 16.809 2.78833 16.6329 2.78833C16.4567 2.78833 16.2878 2.85641 16.1632 2.9776C16.0387 3.09878 15.9687 3.26314 15.9687 3.43452V4.08071H7.99901V3.43452C7.99901 3.26314 7.92904 3.09878 7.80449 2.9776C7.67994 2.85641 7.51101 2.78833 7.33487 2.78833C7.15873 2.78833 6.9898 2.85641 6.86525 2.9776C6.7407 3.09878 6.67072 3.26314 6.67072 3.43452V4.08071H3.35001C2.99773 4.08071 2.65988 4.21688 2.41077 4.45925C2.16167 4.70161 2.02173 5.03034 2.02173 5.3731V28.636C2.02173 28.9788 2.16167 29.3075 2.41077 29.5499C2.65988 29.7923 2.99773 29.9284 3.35001 29.9284H29.9157C30.268 29.9284 30.6058 29.7923 30.8549 29.5499C31.104 29.3075 31.244 28.9788 31.244 28.636V5.3731C31.244 5.03034 31.104 4.70161 30.8549 4.45925C30.6058 4.21688 30.268 4.08071 29.9157 4.08071ZM29.9157 28.636H3.35001V10.5426H29.9157V28.636ZM3.35001 9.25025V5.3731H6.67072V6.01929C6.67072 6.19067 6.7407 6.35503 6.86525 6.47622C6.9898 6.5974 7.15873 6.66548 7.33487 6.66548C7.51101 6.66548 7.67994 6.5974 7.80449 6.47622C7.92904 6.35503 7.99901 6.19067 7.99901 6.01929V5.3731H15.9687V6.01929C15.9687 6.19067 16.0387 6.35503 16.1632 6.47622C16.2878 6.5974 16.4567 6.66548 16.6329 6.66548C16.809 6.66548 16.9779 6.5974 17.1025 6.47622C17.227 6.35503 17.297 6.19067 17.297 6.01929V5.3731H25.2667V6.01929C25.2667 6.19067 25.3367 6.35503 25.4612 6.47622C25.5858 6.5974 25.7547 6.66548 25.9309 6.66548C26.107 6.66548 26.2759 6.5974 26.4005 6.47622C26.525 6.35503 26.595 6.19067 26.595 6.01929V5.3731H29.9157V9.25025H3.35001Z" fill="#DB6A1F"/>
<path d="M6.67073 18.297H10.6556C10.8317 18.297 11.0007 18.2289 11.1252 18.1077C11.2498 17.9865 11.3197 17.8222 11.3197 17.6508V13.7736C11.3197 13.6023 11.2498 13.4379 11.1252 13.3167C11.0007 13.1955 10.8317 13.1274 10.6556 13.1274H6.67073C6.49459 13.1274 6.32567 13.1955 6.20111 13.3167C6.07656 13.4379 6.00659 13.6023 6.00659 13.7736V17.6508C6.00659 17.8222 6.07656 17.9865 6.20111 18.1077C6.32567 18.2289 6.49459 18.297 6.67073 18.297ZM7.33488 14.4198H9.99145V17.0046H7.33488V14.4198Z" fill="#DB6A1F"/>
<path d="M14.6405 18.297H18.6253C18.8015 18.297 18.9704 18.2289 19.0949 18.1077C19.2195 17.9865 19.2895 17.8222 19.2895 17.6508V13.7736C19.2895 13.6023 19.2195 13.4379 19.0949 13.3167C18.9704 13.1955 18.8015 13.1274 18.6253 13.1274H14.6405C14.4643 13.1274 14.2954 13.1955 14.1708 13.3167C14.0463 13.4379 13.9763 13.6023 13.9763 13.7736V17.6508C13.9763 17.8222 14.0463 17.9865 14.1708 18.1077C14.2954 18.2289 14.4643 18.297 14.6405 18.297ZM15.3046 14.4198H17.9612V17.0046H15.3046V14.4198Z" fill="#DB6A1F"/>
<path d="M22.6102 18.297H26.595C26.7712 18.297 26.9401 18.2289 27.0647 18.1077C27.1892 17.9865 27.2592 17.8222 27.2592 17.6508V13.7736C27.2592 13.6023 27.1892 13.4379 27.0647 13.3167C26.9401 13.1955 26.7712 13.1274 26.595 13.1274H22.6102C22.434 13.1274 22.2651 13.1955 22.1406 13.3167C22.016 13.4379 21.946 13.6023 21.946 13.7736V17.6508C21.946 17.8222 22.016 17.9865 22.1406 18.1077C22.2651 18.2289 22.434 18.297 22.6102 18.297ZM23.2743 14.4198H25.9309V17.0046H23.2743V14.4198Z" fill="#DB6A1F"/>
<path d="M6.67073 26.0514H10.6556C10.8317 26.0514 11.0007 25.9833 11.1252 25.8621C11.2498 25.7409 11.3197 25.5766 11.3197 25.4052V21.528C11.3197 21.3566 11.2498 21.1923 11.1252 21.0711C11.0007 20.9499 10.8317 20.8818 10.6556 20.8818H6.67073C6.49459 20.8818 6.32567 20.9499 6.20111 21.0711C6.07656 21.1923 6.00659 21.3566 6.00659 21.528V25.4052C6.00659 25.5766 6.07656 25.7409 6.20111 25.8621C6.32567 25.9833 6.49459 26.0514 6.67073 26.0514ZM7.33488 22.1742H9.99145V24.759H7.33488V22.1742Z" fill="#DB6A1F"/>
<path d="M14.6405 26.0514H18.6253C18.8015 26.0514 18.9704 25.9833 19.0949 25.8621C19.2195 25.7409 19.2895 25.5766 19.2895 25.4052V21.528C19.2895 21.3566 19.2195 21.1923 19.0949 21.0711C18.9704 20.9499 18.8015 20.8818 18.6253 20.8818H14.6405C14.4643 20.8818 14.2954 20.9499 14.1708 21.0711C14.0463 21.1923 13.9763 21.3566 13.9763 21.528V25.4052C13.9763 25.5766 14.0463 25.7409 14.1708 25.8621C14.2954 25.9833 14.4643 26.0514 14.6405 26.0514ZM15.3046 22.1742H17.9612V24.759H15.3046V22.1742Z" fill="#DB6A1F"/>
<path d="M22.6102 26.0514H26.595C26.7712 26.0514 26.9401 25.9833 27.0647 25.8621C27.1892 25.7409 27.2592 25.5766 27.2592 25.4052V21.528C27.2592 21.3566 27.1892 21.1923 27.0647 21.0711C26.9401 20.9499 26.7712 20.8818 26.595 20.8818H22.6102C22.434 20.8818 22.2651 20.9499 22.1406 21.0711C22.016 21.1923 21.946 21.3566 21.946 21.528V25.4052C21.946 25.5766 22.016 25.7409 22.1406 25.8621C22.2651 25.9833 22.434 26.0514 22.6102 26.0514ZM23.2743 22.1742H25.9309V24.759H23.2743V22.1742Z" fill="#DB6A1F"/>
</svg>
