<svg width="37" height="37" viewBox="0 0 37 37" fill="none" xmlns="http://www.w3.org/2000/svg">
<path d="M33.915 3.93628H30.0609V3.18628C30.0609 2.98737 29.9797 2.7966 29.8351 2.65595C29.6905 2.5153 29.4945 2.43628 29.29 2.43628C29.0856 2.43628 28.8895 2.5153 28.745 2.65595C28.6004 2.7966 28.5192 2.98737 28.5192 3.18628V3.93628H19.2692V3.18628C19.2692 2.98737 19.188 2.7966 19.0434 2.65595C18.8989 2.5153 18.7028 2.43628 18.4984 2.43628C18.2939 2.43628 18.0979 2.5153 17.9533 2.65595C17.8088 2.7966 17.7275 2.98737 17.7275 3.18628V3.93628H8.47754V3.18628C8.47754 2.98737 8.39633 2.7966 8.25177 2.65595C8.10721 2.5153 7.91114 2.43628 7.70671 2.43628C7.50227 2.43628 7.3062 2.5153 7.16164 2.65595C7.01709 2.7966 6.93587 2.98737 6.93587 3.18628V3.93628H3.08171C2.67283 3.93628 2.2807 4.09431 1.99158 4.37562C1.70246 4.65692 1.54004 5.03845 1.54004 5.43628V32.4363C1.54004 32.8341 1.70246 33.2156 1.99158 33.4969C2.2807 33.7782 2.67283 33.9363 3.08171 33.9363H33.915C34.3239 33.9363 34.716 33.7782 35.0052 33.4969C35.2943 33.2156 35.4567 32.8341 35.4567 32.4363V5.43628C35.4567 5.03845 35.2943 4.65692 35.0052 4.37562C34.716 4.09431 34.3239 3.93628 33.915 3.93628ZM33.915 32.4363H3.08171V11.4363H33.915V32.4363ZM3.08171 9.93628V5.43628H6.93587V6.18628C6.93587 6.38519 7.01709 6.57596 7.16164 6.71661C7.3062 6.85726 7.50227 6.93628 7.70671 6.93628C7.91114 6.93628 8.10721 6.85726 8.25177 6.71661C8.39633 6.57596 8.47754 6.38519 8.47754 6.18628V5.43628H17.7275V6.18628C17.7275 6.38519 17.8088 6.57596 17.9533 6.71661C18.0979 6.85726 18.2939 6.93628 18.4984 6.93628C18.7028 6.93628 18.8989 6.85726 19.0434 6.71661C19.188 6.57596 19.2692 6.38519 19.2692 6.18628V5.43628H28.5192V6.18628C28.5192 6.38519 28.6004 6.57596 28.745 6.71661C28.8895 6.85726 29.0856 6.93628 29.29 6.93628C29.4945 6.93628 29.6905 6.85726 29.8351 6.71661C29.9797 6.57596 30.0609 6.38519 30.0609 6.18628V5.43628H33.915V9.93628H3.08171Z" fill="#DB6A1F"/>
<path d="M6.93587 20.4363H11.5609C11.7653 20.4363 11.9614 20.3573 12.1059 20.2166C12.2505 20.076 12.3317 19.8852 12.3317 19.6863V15.1863C12.3317 14.9874 12.2505 14.7966 12.1059 14.6559C11.9614 14.5153 11.7653 14.4363 11.5609 14.4363H6.93587C6.73143 14.4363 6.53537 14.5153 6.39081 14.6559C6.24625 14.7966 6.16504 14.9874 6.16504 15.1863V19.6863C6.16504 19.8852 6.24625 20.076 6.39081 20.2166C6.53537 20.3573 6.73143 20.4363 6.93587 20.4363ZM7.70671 15.9363H10.79V18.9363H7.70671V15.9363Z" fill="#DB6A1F"/>
<path d="M16.1859 20.4363H20.8109C21.0153 20.4363 21.2114 20.3573 21.3559 20.2166C21.5005 20.076 21.5817 19.8852 21.5817 19.6863V15.1863C21.5817 14.9874 21.5005 14.7966 21.3559 14.6559C21.2114 14.5153 21.0153 14.4363 20.8109 14.4363H16.1859C15.9814 14.4363 15.7854 14.5153 15.6408 14.6559C15.4963 14.7966 15.415 14.9874 15.415 15.1863V19.6863C15.415 19.8852 15.4963 20.076 15.6408 20.2166C15.7854 20.3573 15.9814 20.4363 16.1859 20.4363ZM16.9567 15.9363H20.04V18.9363H16.9567V15.9363Z" fill="#DB6A1F"/>
<path d="M25.4359 20.4363H30.0609C30.2653 20.4363 30.4614 20.3573 30.6059 20.2166C30.7505 20.076 30.8317 19.8852 30.8317 19.6863V15.1863C30.8317 14.9874 30.7505 14.7966 30.6059 14.6559C30.4614 14.5153 30.2653 14.4363 30.0609 14.4363H25.4359C25.2314 14.4363 25.0354 14.5153 24.8908 14.6559C24.7463 14.7966 24.665 14.9874 24.665 15.1863V19.6863C24.665 19.8852 24.7463 20.076 24.8908 20.2166C25.0354 20.3573 25.2314 20.4363 25.4359 20.4363ZM26.2067 15.9363H29.29V18.9363H26.2067V15.9363Z" fill="#DB6A1F"/>
<path d="M6.93587 29.4363H11.5609C11.7653 29.4363 11.9614 29.3573 12.1059 29.2166C12.2505 29.076 12.3317 28.8852 12.3317 28.6863V24.1863C12.3317 23.9874 12.2505 23.7966 12.1059 23.6559C11.9614 23.5153 11.7653 23.4363 11.5609 23.4363H6.93587C6.73143 23.4363 6.53537 23.5153 6.39081 23.6559C6.24625 23.7966 6.16504 23.9874 6.16504 24.1863V28.6863C6.16504 28.8852 6.24625 29.076 6.39081 29.2166C6.53537 29.3573 6.73143 29.4363 6.93587 29.4363ZM7.70671 24.9363H10.79V27.9363H7.70671V24.9363Z" fill="#DB6A1F"/>
<path d="M16.1859 29.4363H20.8109C21.0153 29.4363 21.2114 29.3573 21.3559 29.2166C21.5005 29.076 21.5817 28.8852 21.5817 28.6863V24.1863C21.5817 23.9874 21.5005 23.7966 21.3559 23.6559C21.2114 23.5153 21.0153 23.4363 20.8109 23.4363H16.1859C15.9814 23.4363 15.7854 23.5153 15.6408 23.6559C15.4963 23.7966 15.415 23.9874 15.415 24.1863V28.6863C15.415 28.8852 15.4963 29.076 15.6408 29.2166C15.7854 29.3573 15.9814 29.4363 16.1859 29.4363ZM16.9567 24.9363H20.04V27.9363H16.9567V24.9363Z" fill="#DB6A1F"/>
<path d="M25.4359 29.4363H30.0609C30.2653 29.4363 30.4614 29.3573 30.6059 29.2166C30.7505 29.076 30.8317 28.8852 30.8317 28.6863V24.1863C30.8317 23.9874 30.7505 23.7966 30.6059 23.6559C30.4614 23.5153 30.2653 23.4363 30.0609 23.4363H25.4359C25.2314 23.4363 25.0354 23.5153 24.8908 23.6559C24.7463 23.7966 24.665 23.9874 24.665 24.1863V28.6863C24.665 28.8852 24.7463 29.076 24.8908 29.2166C25.0354 29.3573 25.2314 29.4363 25.4359 29.4363ZM26.2067 24.9363H29.29V27.9363H26.2067V24.9363Z" fill="#DB6A1F"/>
</svg>
